<svg aria-hidden="true" style="position: absolute; width: 0; height: 0; overflow: hidden;" version="1.1" xmlns="http://www.w3.org/2000/svg" xmlns:xlink="http://www.w3.org/1999/xlink">
<defs>
<symbol id="icon-characteristics-first" viewBox="0 0 32 32">
<path fill="#fff" style="fill: var(--color1, #fff)" d="M0 0h32v32h-32v-32z"></path>
<path fill="#2a254b" style="fill: var(--color2, #2a254b)" d="M16 16h-12v2h12v-2z"></path>
<path fill="#2a254b" style="fill: var(--color2, #2a254b)" d="M12 11h-10v2h10v-2z"></path>
<path fill="#2a254b" style="fill: var(--color2, #2a254b)" d="M29.919 16.606l-3-7c-0.077-0.18-0.205-0.333-0.368-0.441s-0.355-0.165-0.551-0.165h-3v-2c0-0.265-0.105-0.52-0.293-0.707s-0.442-0.293-0.707-0.293h-16v2h15v12.556c-0.456 0.265-0.854 0.617-1.173 1.036s-0.552 0.898-0.685 1.408h-6.284c-0.243-0.943-0.822-1.764-1.628-2.311s-1.783-0.78-2.749-0.657-1.854 0.593-2.497 1.324c-0.644 0.731-0.999 1.671-0.999 2.644s0.355 1.914 0.999 2.644c0.644 0.731 1.532 1.201 2.497 1.324s1.943-0.111 2.749-0.657c0.806-0.547 1.385-1.368 1.628-2.311h6.284c0.218 0.858 0.716 1.618 1.414 2.162s1.558 0.838 2.443 0.838 1.745-0.295 2.443-0.838c0.699-0.543 1.196-1.304 1.414-2.162h2.142c0.265 0 0.52-0.105 0.707-0.293s0.293-0.442 0.293-0.707v-7c0-0.135-0.028-0.269-0.081-0.394zM9 26c-0.396 0-0.782-0.117-1.111-0.337s-0.585-0.532-0.737-0.898c-0.151-0.365-0.191-0.768-0.114-1.155s0.268-0.744 0.547-1.024c0.28-0.28 0.636-0.47 1.024-0.547s0.79-0.038 1.156 0.114c0.365 0.151 0.678 0.408 0.898 0.737s0.337 0.716 0.337 1.111c-0.001 0.53-0.212 1.039-0.586 1.414s-0.883 0.586-1.414 0.586zM23 11h2.341l2.143 5h-4.484v-5zM23 26c-0.396 0-0.782-0.117-1.111-0.337s-0.585-0.532-0.737-0.898c-0.151-0.365-0.191-0.768-0.114-1.155s0.268-0.744 0.547-1.024c0.28-0.28 0.636-0.47 1.024-0.547s0.79-0.038 1.155 0.114c0.365 0.151 0.678 0.408 0.898 0.737s0.337 0.716 0.337 1.111c-0.001 0.53-0.211 1.039-0.586 1.414s-0.883 0.586-1.414 0.586zM28 23h-1.142c-0.22-0.857-0.719-1.616-1.417-2.159s-1.557-0.839-2.441-0.841v-2h5v5z"></path>
</symbol>
<symbol id="icon-backet" viewBox="0 0 32 32">
<path fill="#fff" style="fill: var(--color1, #fff)" d="M0 0h32v32h-32v-32z"></path>
<path fill="#2a254b" style="fill: var(--color2, #2a254b)" d="M10 30c1.105 0 2-0.895 2-2s-0.895-2-2-2c-1.105 0-2 0.895-2 2s0.895 2 2 2z"></path>
<path fill="#2a254b" style="fill: var(--color2, #2a254b)" d="M24 30c1.105 0 2-0.895 2-2s-0.895-2-2-2c-1.105 0-2 0.895-2 2s0.895 2 2 2z"></path>
<path fill="#2a254b" style="fill: var(--color2, #2a254b)" d="M28 7h-22.18l-0.82-4.2c-0.047-0.229-0.172-0.435-0.355-0.581s-0.411-0.224-0.645-0.219h-4v2h3.18l3.82 19.2c0.047 0.229 0.172 0.435 0.355 0.581s0.411 0.224 0.645 0.219h18v-2h-17.18l-0.82-4h18c0.231 0.006 0.457-0.069 0.639-0.211s0.31-0.343 0.361-0.569l2-9c0.034-0.148 0.033-0.302-0.002-0.45s-0.103-0.286-0.2-0.404c-0.096-0.118-0.218-0.212-0.357-0.275s-0.289-0.094-0.441-0.091zM25.2 16h-17.58l-1.4-7h20.53l-1.55 7z"></path>
</symbol>
<symbol id="icon-characteristics-fourth" viewBox="0 0 32 32">
<path fill="#fff" style="fill: var(--color1, #fff)" d="M0 0h32v32h-32v-32z"></path>
<path fill="#2a254b" style="fill: var(--color2, #2a254b)" d="M25 2c-2.216 0.004-4.38 0.676-6.208 1.929s-3.235 3.029-4.037 5.095c-0.643-0.932-1.502-1.695-2.505-2.222s-2.118-0.802-3.25-0.803h-3v3c0.002 1.856 0.74 3.635 2.053 4.947s3.092 2.051 4.947 2.053h1v9.049c-2.297 0.225-4.444 1.243-6.071 2.879l1.414 1.414c0.837-0.836 1.848-1.477 2.962-1.875s2.302-0.545 3.479-0.429c1.177 0.116 2.314 0.492 3.329 1.1s1.882 1.434 2.539 2.418l1.662-1.113c-0.82-1.225-1.901-2.253-3.165-3.011s-2.681-1.226-4.148-1.371v-9.062h1c2.916-0.003 5.712-1.163 7.775-3.225s3.222-4.858 3.225-7.775v-3h-3zM13 14c-1.326-0.001-2.596-0.529-3.534-1.466s-1.465-2.208-1.466-3.534v-1h1c1.326 0.001 2.597 0.529 3.534 1.466s1.465 2.208 1.466 3.534v1h-1zM26 5c-0.003 2.386-0.952 4.674-2.639 6.361s-3.975 2.636-6.361 2.639h-1v-1c0.003-2.386 0.952-4.674 2.639-6.361s3.975-2.636 6.361-2.639h1v1z"></path>
</symbol>
<symbol id="icon-characteristics-sec" viewBox="0 0 32 32">
<path fill="#fff" style="fill: var(--color1, #fff)" d="M0 0h32v32h-32v-32z"></path>
<path fill="#2a254b" style="fill: var(--color2, #2a254b)" d="M14 21.414l-5-5.001 1.413-1.413 3.587 3.586 7.585-7.586 1.415 1.415-9 8.999z"></path>
<path fill="#2a254b" style="fill: var(--color2, #2a254b)" d="M16 2c-2.769 0-5.476 0.821-7.778 2.359s-4.097 3.725-5.156 6.283c-1.060 2.558-1.337 5.373-0.797 8.089s1.874 5.21 3.832 7.168c1.958 1.958 4.452 3.291 7.168 3.831s5.531 0.263 8.089-0.797c2.558-1.060 4.745-2.854 6.283-5.156s2.359-5.009 2.359-7.778c0-3.713-1.475-7.274-4.101-9.899s-6.186-4.101-9.899-4.101zM16 28c-2.373 0-4.693-0.704-6.667-2.022s-3.511-3.193-4.42-5.385c-0.908-2.193-1.146-4.606-0.683-6.933s1.606-4.466 3.284-6.144 3.816-2.821 6.144-3.284c2.328-0.463 4.741-0.225 6.933 0.683s4.067 2.446 5.385 4.42c1.319 1.973 2.022 4.293 2.022 6.667 0 3.183-1.264 6.235-3.515 8.485s-5.303 3.515-8.485 3.515z"></path>
</symbol>
<symbol id="icon-characteristics-third" viewBox="0 0 32 32">
<path fill="#fff" style="fill: var(--color1, #fff)" d="M0 0h32v32h-32v-32z"></path>
<path fill="#2a254b" style="fill: var(--color2, #2a254b)" d="M28 6h-24c-0.53 0-1.039 0.211-1.414 0.586s-0.586 0.884-0.586 1.414v16c0 0.53 0.211 1.039 0.586 1.414s0.884 0.586 1.414 0.586h24c0.53 0 1.039-0.211 1.414-0.586s0.586-0.884 0.586-1.414v-16c0-0.53-0.211-1.039-0.586-1.414s-0.884-0.586-1.414-0.586zM28 8v3h-24v-3h24zM4 24v-11h24v11h-24z"></path>
<path fill="#2a254b" style="fill: var(--color2, #2a254b)" d="M16 20h-10v2h10v-2z"></path>
</symbol>
<symbol id="icon-loupe" viewBox="0 0 32 32">
<path fill="#fff" style="fill: var(--color1, #fff)" d="M0 0h32v32h-32v-32z"></path>
<path fill="#2a254b" style="fill: var(--color2, #2a254b)" d="M29 27.586l-7.552-7.552c1.815-2.179 2.72-4.973 2.526-7.802s-1.469-5.474-3.563-7.386c-2.094-1.912-4.844-2.943-7.679-2.878s-5.535 1.219-7.54 3.224c-2.005 2.005-3.16 4.706-3.224 7.54s0.966 5.585 2.878 7.679c1.912 2.094 4.557 3.37 7.386 3.563s5.623-0.712 7.802-2.527l7.552 7.552 1.414-1.414zM4 13c0-1.78 0.528-3.52 1.517-5s2.395-2.634 4.039-3.315c1.645-0.681 3.454-0.859 5.2-0.512s3.349 1.204 4.608 2.463c1.259 1.259 2.116 2.862 2.463 4.608s0.169 3.555-0.512 5.2-1.835 3.050-3.315 4.039c-1.48 0.989-3.22 1.517-5 1.517-2.386-0.003-4.674-0.952-6.361-2.639s-2.636-3.975-2.639-6.361z"></path>
</symbol>
<symbol id="icon-user" viewBox="0 0 32 32">
<path fill="#fff" style="fill: var(--color1, #fff)" d="M0 0h32v32h-32v-32z"></path>
<path fill="#2a254b" style="fill: var(--color2, #2a254b)" d="M16 8c-0.989 0-1.956 0.293-2.778 0.843s-1.463 1.33-1.842 2.244c-0.378 0.914-0.477 1.919-0.285 2.889s0.669 1.861 1.368 2.56c0.699 0.699 1.59 1.175 2.56 1.368s1.975 0.094 2.889-0.285c0.914-0.378 1.695-1.019 2.244-1.842s0.843-1.789 0.843-2.778c0-1.326-0.527-2.598-1.464-3.536s-2.209-1.464-3.536-1.464zM16 16c-0.593 0-1.173-0.176-1.667-0.506s-0.878-0.798-1.105-1.346c-0.227-0.548-0.286-1.151-0.171-1.733s0.401-1.116 0.821-1.536c0.42-0.42 0.954-0.705 1.536-0.821s1.185-0.056 1.733 0.171c0.548 0.227 1.017 0.612 1.346 1.105s0.506 1.073 0.506 1.667c-0.001 0.795-0.317 1.558-0.88 2.12s-1.325 0.879-2.12 0.88z"></path>
<path fill="#2a254b" style="fill: var(--color2, #2a254b)" d="M16 2c-2.769 0-5.476 0.821-7.778 2.359s-4.097 3.725-5.156 6.283c-1.060 2.558-1.337 5.373-0.797 8.089s1.874 5.21 3.832 7.168c1.958 1.958 4.452 3.291 7.168 3.832s5.531 0.263 8.089-0.797c2.558-1.060 4.745-2.854 6.283-5.156s2.359-5.009 2.359-7.778c-0.004-3.712-1.481-7.27-4.105-9.895s-6.183-4.101-9.895-4.105zM10 26.376v-1.376c0.001-0.795 0.317-1.558 0.88-2.12s1.325-0.879 2.12-0.88h6c0.795 0.001 1.558 0.317 2.12 0.88s0.879 1.325 0.88 2.12v1.376c-1.821 1.063-3.891 1.624-6 1.624s-4.179-0.56-6-1.624zM23.993 24.926c-0.020-1.312-0.554-2.563-1.488-3.485s-2.192-1.439-3.504-1.441h-6c-1.312 0.002-2.57 0.52-3.504 1.441s-1.468 2.173-1.488 3.485c-1.813-1.619-3.092-3.751-3.667-6.113s-0.419-4.843 0.448-7.115 2.403-4.226 4.405-5.605c2.002-1.379 4.376-2.118 6.807-2.118s4.805 0.738 6.807 2.118c2.002 1.379 3.538 3.334 4.405 5.605s1.023 4.753 0.448 7.115c-0.575 2.362-1.854 4.494-3.667 6.113z"></path>
</symbol>
<symbol id="icon-social-sixth" viewBox="0 0 32 32">
<path fill="#fff" style="fill: var(--color1, #fff)" d="M16 0.727c-3.541 0.024-6.963 1.278-9.682 3.547s-4.564 5.412-5.222 8.891c-0.657 3.479-0.085 7.079 1.619 10.183s4.433 5.52 7.721 6.834c-0.221-1.446-0.221-2.918 0-4.364l1.8-7.636c-0.285-0.692-0.426-1.434-0.415-2.182 0-2.116 1.233-3.709 2.76-3.709 0.277-0.004 0.551 0.052 0.804 0.163s0.479 0.277 0.663 0.484c0.183 0.207 0.32 0.452 0.4 0.716s0.102 0.544 0.064 0.818c0 1.309-0.829 3.273-1.265 5.084-0.094 0.338-0.105 0.693-0.033 1.036s0.227 0.663 0.449 0.934c0.223 0.271 0.507 0.484 0.83 0.621s0.673 0.195 1.023 0.168c2.705 0 4.8-2.869 4.8-6.993 0.027-0.838-0.121-1.672-0.434-2.45s-0.785-1.481-1.386-2.067-1.316-1.039-2.102-1.332c-0.786-0.293-1.624-0.419-2.46-0.37-0.894-0.038-1.786 0.105-2.622 0.421s-1.6 0.799-2.245 1.419c-0.645 0.62-1.157 1.364-1.505 2.188s-0.526 1.71-0.522 2.604c-0.012 1.246 0.37 2.464 1.091 3.48 0.052 0.058 0.090 0.129 0.109 0.205s0.019 0.156 0 0.232c-0.12 0.48-0.382 1.527-0.425 1.735s-0.229 0.338-0.513 0.207c-1.909-0.895-3.098-3.676-3.098-5.924 0-4.811 3.502-9.24 10.091-9.24 5.291 0 9.415 3.775 9.415 8.825 0 5.258-3.273 9.491-7.931 9.491-0.683 0.024-1.361-0.123-1.973-0.428s-1.137-0.758-1.529-1.317l-0.949 3.633c-0.455 1.412-1.093 2.758-1.898 4.004 1.483 0.438 3.024 0.652 4.571 0.633 4.051 0 7.935-1.609 10.799-4.473s4.473-6.749 4.473-10.799c0-4.051-1.609-7.935-4.473-10.799s-6.749-4.473-10.799-4.473z"></path>
</symbol>
<symbol id="icon-social-fifth" viewBox="0 0 32 32">
<path fill="#fff" style="fill: var(--color1, #fff)" d="M10.56 27.92c2.252 0.014 4.485-0.419 6.568-1.274s3.976-2.116 5.569-3.708 2.853-3.485 3.708-5.569c0.855-2.084 1.289-4.316 1.274-6.568 0-0.267 0-0.52 0-0.787 1.167-0.855 2.178-1.906 2.987-3.107-1.099 0.481-2.263 0.8-3.453 0.947 1.263-0.752 2.21-1.936 2.667-3.333-1.177 0.706-2.467 1.202-3.813 1.467-0.907-0.966-2.107-1.607-3.414-1.822s-2.649 0.006-3.818 0.63c-1.169 0.624-2.1 1.616-2.648 2.822s-0.684 2.559-0.386 3.851c-2.392-0.117-4.732-0.737-6.869-1.819s-4.021-2.602-5.531-4.461c-0.761 1.322-0.992 2.883-0.646 4.368s1.245 2.783 2.512 3.632c-0.935-0.036-1.849-0.292-2.667-0.747v0.067c-0.008 1.381 0.457 2.723 1.318 3.803s2.067 1.832 3.415 2.13c-0.87 0.234-1.781 0.27-2.667 0.107 0.39 1.178 1.136 2.206 2.133 2.944s2.199 1.149 3.44 1.176c-2.121 1.707-4.757 2.647-7.48 2.667-0.477-0.014-0.954-0.054-1.427-0.12 2.756 1.756 5.959 2.682 9.227 2.667z"></path>
</symbol>
<symbol id="icon-social-fourth" viewBox="0 0 32 32">
<path fill="#fff" style="fill: var(--color1, #fff)" d="M30.291 18.256c0.121-0.746 0.181-1.5 0.18-2.256 0-3.838-1.525-7.519-4.239-10.233s-6.395-4.239-10.233-4.239c-0.756-0.001-1.51 0.059-2.256 0.18-1.673-1.002-3.632-1.416-5.567-1.177s-3.735 1.118-5.114 2.496c-1.379 1.379-2.257 3.179-2.496 5.114s0.175 3.895 1.177 5.567c-0.135 0.757-0.207 1.523-0.216 2.292 0 3.838 1.525 7.519 4.239 10.233s6.395 4.239 10.233 4.239c0.756 0.001 1.51-0.059 2.256-0.18 1.673 1.002 3.632 1.416 5.568 1.177s3.735-1.118 5.114-2.496 2.257-3.179 2.496-5.114c0.239-1.935-0.176-3.895-1.178-5.567l0.036-0.036zM22.875 22.576c-0.677 0.936-1.611 1.657-2.688 2.076-1.329 0.522-2.748 0.774-4.176 0.744-1.662 0.069-3.314-0.273-4.812-0.996-0.873-0.469-1.622-1.14-2.184-1.956-0.515-0.697-0.808-1.534-0.84-2.4-0.001-0.225 0.044-0.447 0.133-0.654s0.219-0.392 0.383-0.546c0.363-0.309 0.831-0.468 1.308-0.444 0.398-0.008 0.786 0.129 1.092 0.384 0.335 0.313 0.594 0.699 0.756 1.128 0.208 0.501 0.474 0.976 0.792 1.416 0.317 0.406 0.729 0.727 1.2 0.936 0.64 0.274 1.333 0.401 2.028 0.372 0.99 0.048 1.971-0.212 2.808-0.744 0.321-0.188 0.588-0.456 0.775-0.778s0.288-0.686 0.293-1.058c0.010-0.261-0.034-0.52-0.132-0.762s-0.244-0.461-0.432-0.642c-0.427-0.394-0.941-0.681-1.5-0.84-0.624-0.204-1.452-0.408-2.496-0.636-1.199-0.279-2.368-0.673-3.492-1.176-0.884-0.362-1.664-0.94-2.268-1.68-0.573-0.763-0.869-1.698-0.84-2.652-0.010-0.97 0.303-1.915 0.888-2.688 0.669-0.831 1.559-1.455 2.568-1.8 1.276-0.424 2.616-0.619 3.96-0.576 1.051-0.019 2.099 0.123 3.108 0.42 0.792 0.235 1.535 0.609 2.196 1.104 0.52 0.391 0.953 0.885 1.272 1.452 0.26 0.458 0.4 0.974 0.408 1.5-0.001 0.224-0.048 0.446-0.136 0.652s-0.218 0.392-0.38 0.548c-0.163 0.177-0.362 0.318-0.583 0.413s-0.46 0.143-0.701 0.139c-0.386 0.030-0.769-0.090-1.068-0.336-0.315-0.303-0.578-0.656-0.78-1.044-0.297-0.612-0.728-1.149-1.26-1.572-0.698-0.435-1.52-0.629-2.34-0.552-0.841-0.035-1.675 0.173-2.4 0.6-0.264 0.141-0.486 0.347-0.646 0.6s-0.252 0.542-0.266 0.84c-0.009 0.326 0.097 0.645 0.3 0.9 0.239 0.277 0.534 0.502 0.864 0.66 0.352 0.182 0.722 0.327 1.104 0.432 0.384 0.108 1.008 0.264 1.884 0.468 1.104 0.24 2.088 0.504 2.988 0.792 0.805 0.245 1.572 0.601 2.28 1.056 0.617 0.39 1.125 0.931 1.476 1.572 0.357 0.731 0.522 1.54 0.48 2.352 0.011 1.064-0.312 2.105-0.924 2.976z"></path>
</symbol>
<symbol id="icon-social-third" viewBox="0 0 32 32">
<path fill="#fff" style="fill: var(--color1, #fff)" d="M24.541 9.379c1.060 0 1.92-0.86 1.92-1.92s-0.86-1.92-1.92-1.92c-1.060 0-1.92 0.86-1.92 1.92s0.86 1.92 1.92 1.92z"></path>
<path fill="#fff" style="fill: var(--color1, #fff)" d="M16 7.784c-1.625 0-3.214 0.482-4.565 1.385s-2.404 2.186-3.026 3.687c-0.622 1.501-0.785 3.153-0.468 4.747s1.1 3.058 2.249 4.207c1.149 1.149 2.613 1.932 4.207 2.249s3.246 0.154 4.747-0.468c1.501-0.622 2.785-1.675 3.687-3.026s1.385-2.94 1.385-4.565c0-2.179-0.866-4.269-2.407-5.81s-3.631-2.406-5.81-2.406zM16 21.333c-1.055 0-2.086-0.313-2.963-0.899s-1.561-1.419-1.964-2.393c-0.404-0.975-0.509-2.047-0.303-3.082s0.714-1.985 1.46-2.731c0.746-0.746 1.696-1.254 2.731-1.46s2.107-0.1 3.082 0.303c0.974 0.404 1.807 1.087 2.393 1.964s0.899 1.908 0.899 2.963c0 1.414-0.562 2.771-1.562 3.771s-2.357 1.562-3.771 1.562z"></path>
<path fill="#fff" style="fill: var(--color1, #fff)" d="M16 2.883c4.272 0 4.778 0.016 6.465 0.093 1.015 0.012 2.020 0.198 2.971 0.551 0.69 0.266 1.317 0.674 1.84 1.197s0.931 1.15 1.197 1.84c0.353 0.952 0.539 1.956 0.551 2.971 0.077 1.687 0.093 2.193 0.093 6.465s-0.016 4.778-0.093 6.465c-0.012 1.015-0.198 2.020-0.551 2.971-0.266 0.69-0.674 1.317-1.197 1.839s-1.15 0.931-1.84 1.197c-0.951 0.353-1.956 0.539-2.971 0.551-1.687 0.077-2.193 0.093-6.465 0.093s-4.778-0.016-6.465-0.093c-1.015-0.012-2.020-0.198-2.971-0.551-0.69-0.266-1.317-0.674-1.84-1.197s-0.931-1.149-1.197-1.839c-0.353-0.952-0.539-1.957-0.551-2.971-0.077-1.687-0.093-2.193-0.093-6.465s0.016-4.778 0.093-6.465c0.012-1.015 0.198-2.020 0.551-2.971 0.266-0.69 0.674-1.317 1.197-1.84s1.15-0.931 1.84-1.197c0.952-0.353 1.956-0.539 2.971-0.551 1.687-0.077 2.193-0.093 6.465-0.093zM16 0c-4.345 0-4.89 0.018-6.597 0.096-1.327 0.027-2.64 0.278-3.883 0.744-1.063 0.411-2.028 1.040-2.834 1.846s-1.435 1.771-1.846 2.834c-0.466 1.243-0.717 2.556-0.744 3.884-0.078 1.706-0.096 2.251-0.096 6.596s0.018 4.89 0.096 6.597c0.027 1.327 0.278 2.641 0.744 3.884 0.411 1.063 1.040 2.028 1.846 2.834s1.771 1.434 2.834 1.846c1.243 0.466 2.556 0.717 3.884 0.744 1.706 0.077 2.251 0.096 6.596 0.096s4.89-0.018 6.597-0.096c1.327-0.027 2.641-0.278 3.884-0.744 1.063-0.411 2.028-1.040 2.834-1.846s1.434-1.771 1.846-2.834c0.466-1.243 0.717-2.556 0.744-3.884 0.077-1.706 0.096-2.251 0.096-6.596s-0.018-4.89-0.096-6.597c-0.027-1.327-0.278-2.64-0.744-3.883-0.411-1.063-1.040-2.028-1.846-2.834s-1.771-1.434-2.834-1.845c-1.243-0.466-2.556-0.717-3.884-0.744-1.706-0.079-2.251-0.097-6.596-0.097z"></path>
</symbol>
<symbol id="icon-social-sec" viewBox="0 0 32 32">
<path fill="#fff" style="fill: var(--color1, #fff)" d="M30.227 0h-28.453c-0.469 0.004-0.918 0.191-1.25 0.523s-0.52 0.781-0.523 1.25v28.453c0.004 0.469 0.191 0.918 0.523 1.25s0.781 0.52 1.25 0.523h15.32v-12.373h-4.16v-4.84h4.16v-3.56c0-4.133 2.52-6.387 6.227-6.387 1.24 0 2.48 0 3.72 0.187v4.307h-2.547c-2.013 0-2.4 0.96-2.4 2.36v3.080h4.8l-0.627 4.84h-4.173v12.387h8.133c0.469-0.004 0.918-0.191 1.25-0.523s0.52-0.781 0.523-1.25v-28.453c-0.004-0.469-0.191-0.918-0.523-1.25s-0.781-0.52-1.25-0.523z"></path>
</symbol>
<symbol id="icon-social-first" viewBox="0 0 32 32">
<path fill="#fff" style="fill: var(--color1, #fff)" d="M29.6 0h-27.2c-1.333 0-2.4 1.067-2.4 2.267v27.333c0 1.2 1.067 2.267 2.4 2.267h27.2c1.333 0 2.4-1.067 2.4-2.267v-27.333c0-1.2-1.067-2.267-2.4-2.267zM9.467 27.2h-4.667v-15.2h4.667v15.2zM7.2 9.867c-1.467 0-2.8-1.2-2.8-2.8s1.2-2.8 2.8-2.8c1.467 0 2.8 1.2 2.8 2.8s-1.333 2.8-2.8 2.8zM27.333 27.067h-4.667v-7.467c0-1.733 0-4.133-2.533-4.133s-2.8 2-2.8 3.867v7.6h-4.667v-14.933h4.4v2h0.133c0.667-1.2 2.267-2.533 4.533-2.533 4.8 0 5.733 3.2 5.733 7.333v8.267h-0.133z"></path>
</symbol>
<symbol id="icon-burger" viewBox="0 0 32 32">
<path fill="#fff" style="fill: var(--color1, #fff)" d="M0 0h32v32h-32v-32z"></path>
<path fill="#2a254b" style="fill: var(--color2, #2a254b)" d="M28 6h-24v2h24v-2z"></path>
<path fill="#2a254b" style="fill: var(--color2, #2a254b)" d="M28 24h-24v2h24v-2z"></path>
<path fill="#2a254b" style="fill: var(--color2, #2a254b)" d="M28 12h-24v2h24v-2z"></path>
<path fill="#2a254b" style="fill: var(--color2, #2a254b)" d="M28 18h-24v2h24v-2z"></path>
</symbol>
</defs>
</svg>
