<svg aria-hidden="true" style="position: absolute; width: 0; height: 0; overflow: hidden;" version="1.1" xmlns="http://www.w3.org/2000/svg" xmlns:xlink="http://www.w3.org/1999/xlink">
<defs>
<symbol id="icon-burger" viewBox="0 0 38 32">
<path fill="" style="" d="M38.4 0h-38.4v3.2h38.4v-3.2z"></path>
<path fill="" style="" d="M38.4 28.8h-38.4v3.2h38.4v-3.2z"></path>
<path fill="" style="" d="M38.4 9.6h-38.4v3.2h38.4v-3.2z"></path>
<path fill="" style="" d="M38.4 19.2h-38.4v3.2h38.4v-3.2z"></path>
</symbol>
<symbol id="icon-fetures-first" viewBox="0 0 41 32">
<path fill="" style="" d="M20.706 15.059h-16.941v2.824h16.941v-2.824z"></path>
<path fill="" style="" d="M15.059 8h-14.118v2.824h14.118v-2.824z"></path>
<path fill="" style="" d="M40.356 15.915l-4.235-9.882c-0.109-0.254-0.289-0.471-0.52-0.623s-0.501-0.233-0.777-0.233h-4.235v-2.824c0-0.374-0.149-0.734-0.414-0.998s-0.624-0.413-0.998-0.413h-22.588v2.824h21.176v17.727c-0.643 0.373-1.206 0.871-1.656 1.463s-0.779 1.268-0.967 1.987h-8.872c-0.344-1.331-1.161-2.491-2.298-3.262s-2.517-1.101-3.881-0.928-2.617 0.838-3.526 1.869c-0.909 1.031-1.41 2.359-1.41 3.733s0.501 2.702 1.41 3.733c0.909 1.031 2.162 1.696 3.526 1.869s2.743-0.157 3.881-0.928c1.138-0.772 1.955-1.931 2.298-3.262h8.872c0.308 1.211 1.010 2.285 1.997 3.052s2.2 1.183 3.45 1.183 2.463-0.416 3.45-1.183c0.986-0.767 1.689-1.841 1.997-3.052h3.024c0.374 0 0.734-0.149 0.998-0.414s0.414-0.624 0.414-0.998v-9.882c0-0.191-0.039-0.38-0.114-0.556zM10.824 29.176c-0.558 0-1.104-0.166-1.569-0.476s-0.826-0.751-1.040-1.267c-0.214-0.516-0.27-1.084-0.161-1.631s0.378-1.051 0.773-1.446c0.395-0.395 0.898-0.664 1.446-0.773s1.115-0.053 1.631 0.161c0.516 0.214 0.957 0.576 1.267 1.040s0.476 1.010 0.476 1.569c-0.001 0.749-0.299 1.466-0.828 1.996s-1.247 0.827-1.996 0.828zM30.588 8h3.305l3.026 7.059h-6.33v-7.059zM30.588 29.176c-0.558 0-1.104-0.166-1.569-0.476s-0.826-0.751-1.040-1.267c-0.214-0.516-0.27-1.084-0.161-1.631s0.378-1.051 0.773-1.446c0.395-0.395 0.898-0.664 1.446-0.773s1.115-0.053 1.631 0.161c0.516 0.214 0.957 0.576 1.267 1.040s0.476 1.010 0.476 1.569c-0.001 0.749-0.299 1.466-0.828 1.996s-1.247 0.827-1.996 0.828zM37.647 24.941h-1.612c-0.311-1.209-1.014-2.281-2-3.048s-2.198-1.184-3.446-1.188v-2.824h7.059v7.059z"></path>
</symbol>
<symbol id="icon-fetures-sec" viewBox="0 0 32 32">
<path fill="" style="" d="M13.818 21.906l-5.455-5.456 1.541-1.541 3.913 3.912 8.275-8.276 1.544 1.544-9.818 9.817z"></path>
<path fill="" style="" d="M16 0.727c-3.021 0-5.973 0.896-8.485 2.574s-4.469 4.063-5.625 6.854c-1.156 2.791-1.458 5.861-0.869 8.824s2.044 5.684 4.18 7.82c2.136 2.136 4.857 3.591 7.82 4.18s6.034 0.287 8.824-0.869c2.791-1.156 5.176-3.113 6.854-5.625s2.574-5.464 2.574-8.485c0-4.051-1.609-7.935-4.473-10.799s-6.749-4.473-10.799-4.473zM16 29.091c-2.589 0-5.12-0.768-7.273-2.206s-3.831-3.483-4.822-5.875c-0.991-2.392-1.25-5.024-0.745-7.564s1.752-4.872 3.583-6.703c1.831-1.831 4.163-3.078 6.703-3.583s5.171-0.246 7.564 0.745c2.392 0.991 4.436 2.669 5.875 4.821s2.206 4.684 2.206 7.273c0 3.472-1.379 6.802-3.834 9.257s-5.785 3.834-9.257 3.834z"></path>
</symbol>
<symbol id="icon-fetures-third" viewBox="0 0 44 32">
<path fill="" style="" d="M40 1h-36c-0.796 0-1.559 0.316-2.121 0.879s-0.879 1.326-0.879 2.121v24c0 0.796 0.316 1.559 0.879 2.121s1.326 0.879 2.121 0.879h36c0.796 0 1.559-0.316 2.121-0.879s0.879-1.326 0.879-2.121v-24c0-0.796-0.316-1.559-0.879-2.121s-1.326-0.879-2.121-0.879zM40 4v4.5h-36v-4.5h36zM4 28v-16.5h36v16.5h-36z"></path>
<path fill="" style="" d="M22 22h-15v3h15v-3z"></path>
</symbol>
<symbol id="icon-fetures-fourth" viewBox="0 0 25 32">
<path d="M20.727 0.727c-2.418 0.004-4.778 0.738-6.772 2.105s-3.529 3.304-4.404 5.558c-0.701-1.017-1.639-1.849-2.732-2.423s-2.31-0.875-3.546-0.876h-3.273v3.273c0.002 2.025 0.808 3.966 2.239 5.397s3.373 2.237 5.397 2.239h1.091v9.872c-2.506 0.245-4.848 1.356-6.623 3.141l1.543 1.543c0.913-0.912 2.016-1.611 3.231-2.046s2.511-0.594 3.796-0.468c1.284 0.127 2.524 0.536 3.631 1.2s2.053 1.564 2.769 2.637l1.813-1.214c-0.894-1.336-2.074-2.458-3.453-3.285s-2.925-1.337-4.525-1.495v-9.886h1.091c3.182-0.004 6.232-1.269 8.481-3.519s3.515-5.3 3.519-8.481v-3.273h-3.273zM7.636 13.818c-1.446-0.002-2.833-0.577-3.855-1.599s-1.598-2.409-1.599-3.855v-1.091h1.091c1.446 0.002 2.833 0.577 3.855 1.599s1.598 2.409 1.599 3.855v1.091h-1.091zM21.818 4c-0.003 2.603-1.038 5.099-2.879 6.939s-4.336 2.876-6.939 2.879h-1.091v-1.091c0.003-2.603 1.038-5.099 2.879-6.939s4.336-2.876 6.939-2.879h1.091v1.091z"></path>
</symbol>
<symbol id="icon-cart" viewBox="0 0 34 32">
<path fill="" style="" d="M11.429 32c1.262 0 2.286-1.023 2.286-2.286s-1.023-2.286-2.286-2.286c-1.262 0-2.286 1.023-2.286 2.286s1.023 2.286 2.286 2.286z"></path>
<path fill="" style="" d="M27.429 32c1.262 0 2.286-1.023 2.286-2.286s-1.023-2.286-2.286-2.286c-1.262 0-2.286 1.023-2.286 2.286s1.023 2.286 2.286 2.286z"></path>
<path fill="" style="" d="M32 5.714h-25.349l-0.937-4.8c-0.053-0.262-0.197-0.497-0.406-0.664s-0.47-0.256-0.737-0.25h-4.571v2.286h3.634l4.366 21.943c0.053 0.262 0.197 0.497 0.406 0.664s0.47 0.256 0.737 0.25h20.571v-2.286h-19.634l-0.937-4.571h20.571c0.264 0.006 0.523-0.079 0.731-0.241s0.354-0.392 0.412-0.65l2.286-10.286c0.038-0.17 0.038-0.346-0.002-0.515s-0.118-0.327-0.228-0.461c-0.11-0.134-0.25-0.242-0.408-0.314s-0.331-0.108-0.504-0.104zM28.8 16h-20.091l-1.6-8h23.463l-1.771 8z"></path>
</symbol>
<symbol id="icon-user-acount" viewBox="0 0 32 32">
<path fill="" style="" d="M16 6.857c-1.13 0-2.235 0.335-3.175 0.963s-1.672 1.52-2.105 2.564c-0.432 1.044-0.546 2.193-0.325 3.302s0.765 2.127 1.564 2.926c0.799 0.799 1.817 1.343 2.926 1.564s2.257 0.107 3.302-0.325c1.044-0.433 1.937-1.165 2.564-2.105s0.963-2.045 0.963-3.175c0-1.516-0.602-2.969-1.674-4.041s-2.525-1.674-4.041-1.674zM16 16c-0.678 0-1.341-0.201-1.905-0.578s-1.003-0.912-1.263-1.539c-0.259-0.627-0.327-1.316-0.195-1.981s0.459-1.276 0.938-1.755c0.479-0.479 1.090-0.806 1.755-0.938s1.354-0.064 1.981 0.195c0.627 0.259 1.162 0.699 1.539 1.263s0.578 1.227 0.578 1.905c-0.001 0.909-0.363 1.78-1.005 2.423s-1.514 1.004-2.423 1.005z"></path>
<path fill="" style="" d="M16 0c-3.165 0-6.258 0.938-8.889 2.696s-4.682 4.257-5.893 7.181c-1.211 2.924-1.528 6.141-0.91 9.244s2.141 5.955 4.379 8.192c2.238 2.238 5.089 3.762 8.192 4.379s6.321 0.301 9.244-0.91c2.924-1.211 5.422-3.262 7.181-5.893s2.696-5.725 2.696-8.889c-0.005-4.242-1.692-8.309-4.692-11.308s-7.066-4.687-11.308-4.692zM9.143 27.859v-1.573c0.001-0.909 0.363-1.781 1.005-2.423s1.514-1.004 2.423-1.005h6.857c0.909 0.001 1.78 0.363 2.423 1.005s1.004 1.514 1.005 2.423v1.573c-2.081 1.215-4.447 1.856-6.857 1.856s-4.776-0.64-6.857-1.856zM25.134 26.201c-0.023-1.499-0.634-2.929-1.701-3.982s-2.506-1.645-4.005-1.647h-6.857c-1.499 0.003-2.938 0.594-4.005 1.647s-1.678 2.483-1.701 3.982c-2.072-1.851-3.534-4.287-4.191-6.987s-0.479-5.535 0.512-8.131c0.99-2.596 2.746-4.83 5.034-6.406s5.001-2.42 7.78-2.42c2.778 0 5.491 0.844 7.78 2.42s4.044 3.81 5.034 6.406c0.99 2.596 1.169 5.432 0.512 8.131s-2.118 5.136-4.191 6.987z"></path>
</symbol>
<symbol id="icon-search" viewBox="0 0 32 32">
<path fill="" style="" d="M30.934 29.425l-8.055-8.055c1.936-2.324 2.901-5.305 2.695-8.322s-1.567-5.839-3.801-7.879c-2.234-2.039-5.167-3.139-8.191-3.070s-5.904 1.3-8.043 3.439c-2.139 2.139-3.37 5.019-3.439 8.043s1.031 5.957 3.070 8.191c2.039 2.234 4.861 3.595 7.879 3.801s5.998-0.759 8.322-2.695l8.056 8.056 1.508-1.508zM4.267 13.867c0-1.899 0.563-3.755 1.618-5.333s2.554-2.809 4.308-3.536c1.754-0.727 3.684-0.917 5.547-0.546s3.573 1.285 4.915 2.627c1.343 1.343 2.257 3.053 2.627 4.915s0.18 3.792-0.546 5.547-1.957 3.253-3.536 4.308c-1.579 1.055-3.435 1.618-5.333 1.618-2.545-0.003-4.985-1.015-6.785-2.815s-2.812-4.24-2.815-6.785z"></path>
</symbol>
<symbol id="icon-social-fifth" viewBox="0 0 32 32">
<path d="M24.325 3h4.411l-9.636 11.013 11.336 14.987h-8.876l-6.952-9.089-7.955 9.089h-4.413l10.307-11.78-10.875-14.22h9.101l6.284 8.308zM22.777 26.36h2.444l-15.776-20.859h-2.623z"></path>
</symbol>
<symbol id="icon-social-first" viewBox="0 0 32 32">
<path fill="" style="" d="M29.6 0h-27.2c-1.333 0-2.4 1.067-2.4 2.267v27.333c0 1.2 1.067 2.267 2.4 2.267h27.2c1.333 0 2.4-1.067 2.4-2.267v-27.333c0-1.2-1.067-2.267-2.4-2.267zM9.467 27.2h-4.667v-15.2h4.667v15.2zM7.2 9.867c-1.467 0-2.8-1.2-2.8-2.8s1.2-2.8 2.8-2.8c1.467 0 2.8 1.2 2.8 2.8s-1.333 2.8-2.8 2.8zM27.333 27.067h-4.667v-7.467c0-1.733 0-4.133-2.533-4.133s-2.8 2-2.8 3.867v7.6h-4.667v-14.933h4.4v2h0.133c0.667-1.2 2.267-2.533 4.533-2.533 4.8 0 5.733 3.2 5.733 7.333v8.267h-0.133z"></path>
</symbol>
<symbol id="icon-social-sec" viewBox="0 0 32 32">
<path fill="" style="" d="M30.227 0h-28.453c-0.469 0.004-0.918 0.191-1.25 0.523s-0.52 0.781-0.523 1.25v28.453c0.004 0.469 0.191 0.918 0.523 1.25s0.781 0.52 1.25 0.523h15.32v-12.373h-4.16v-4.84h4.16v-3.56c0-4.133 2.52-6.387 6.227-6.387 1.24 0 2.48 0 3.72 0.187v4.307h-2.547c-2.013 0-2.4 0.96-2.4 2.36v3.080h4.8l-0.627 4.84h-4.173v12.387h8.133c0.469-0.004 0.918-0.191 1.25-0.523s0.52-0.781 0.523-1.25v-28.453c-0.004-0.469-0.191-0.918-0.523-1.25s-0.781-0.52-1.25-0.523z"></path>
</symbol>
<symbol id="icon-social-third" viewBox="0 0 32 32">
<path fill="" style="" d="M24.541 9.379c1.060 0 1.92-0.86 1.92-1.92s-0.86-1.92-1.92-1.92c-1.060 0-1.92 0.86-1.92 1.92s0.86 1.92 1.92 1.92z"></path>
<path fill="" style="" d="M16 7.784c-1.625 0-3.214 0.482-4.565 1.385s-2.404 2.186-3.026 3.687c-0.622 1.501-0.785 3.153-0.468 4.747s1.1 3.058 2.249 4.207c1.149 1.149 2.613 1.932 4.207 2.249s3.246 0.154 4.747-0.468c1.501-0.622 2.785-1.675 3.687-3.026s1.385-2.94 1.385-4.565c0-2.179-0.866-4.269-2.407-5.81s-3.631-2.406-5.81-2.406zM16 21.333c-1.055 0-2.086-0.313-2.963-0.899s-1.561-1.419-1.964-2.393c-0.404-0.975-0.509-2.047-0.303-3.082s0.714-1.985 1.46-2.731c0.746-0.746 1.696-1.254 2.731-1.46s2.107-0.1 3.082 0.303c0.974 0.404 1.807 1.087 2.393 1.964s0.899 1.908 0.899 2.963c0 1.414-0.562 2.771-1.562 3.771s-2.357 1.562-3.771 1.562z"></path>
<path fill="" style="" d="M16 2.883c4.272 0 4.778 0.016 6.465 0.093 1.015 0.012 2.020 0.198 2.971 0.551 0.69 0.266 1.317 0.674 1.84 1.197s0.931 1.15 1.197 1.84c0.353 0.952 0.539 1.956 0.551 2.971 0.077 1.687 0.093 2.193 0.093 6.465s-0.016 4.778-0.093 6.465c-0.012 1.015-0.198 2.020-0.551 2.971-0.266 0.69-0.674 1.317-1.197 1.839s-1.15 0.931-1.84 1.197c-0.951 0.353-1.956 0.539-2.971 0.551-1.687 0.077-2.193 0.093-6.465 0.093s-4.778-0.016-6.465-0.093c-1.015-0.012-2.020-0.198-2.971-0.551-0.69-0.266-1.317-0.674-1.84-1.197s-0.931-1.149-1.197-1.839c-0.353-0.952-0.539-1.957-0.551-2.971-0.077-1.687-0.093-2.193-0.093-6.465s0.016-4.778 0.093-6.465c0.012-1.015 0.198-2.020 0.551-2.971 0.266-0.69 0.674-1.317 1.197-1.84s1.15-0.931 1.84-1.197c0.952-0.353 1.956-0.539 2.971-0.551 1.687-0.077 2.193-0.093 6.465-0.093zM16 0c-4.345 0-4.89 0.018-6.597 0.096-1.327 0.027-2.64 0.278-3.883 0.744-1.063 0.411-2.028 1.040-2.834 1.846s-1.435 1.771-1.846 2.834c-0.466 1.243-0.717 2.556-0.744 3.884-0.078 1.706-0.096 2.251-0.096 6.596s0.018 4.89 0.096 6.597c0.027 1.327 0.278 2.641 0.744 3.884 0.411 1.063 1.040 2.028 1.846 2.834s1.771 1.434 2.834 1.846c1.243 0.466 2.556 0.717 3.884 0.744 1.706 0.077 2.251 0.096 6.596 0.096s4.89-0.018 6.597-0.096c1.327-0.027 2.641-0.278 3.884-0.744 1.063-0.411 2.028-1.040 2.834-1.846s1.434-1.771 1.846-2.834c0.466-1.243 0.717-2.556 0.744-3.884 0.077-1.706 0.096-2.251 0.096-6.596s-0.018-4.89-0.096-6.597c-0.027-1.327-0.278-2.64-0.744-3.883-0.411-1.063-1.040-2.028-1.846-2.834s-1.771-1.434-2.834-1.845c-1.243-0.466-2.556-0.717-3.884-0.744-1.706-0.079-2.251-0.097-6.596-0.097z"></path>
</symbol>
<symbol id="icon-social-fourth" viewBox="0 0 32 32">
<path fill="" style="" d="M30.291 18.256c0.121-0.746 0.181-1.5 0.18-2.256 0-3.838-1.525-7.519-4.239-10.233s-6.395-4.239-10.233-4.239c-0.756-0.001-1.51 0.059-2.256 0.18-1.673-1.002-3.632-1.416-5.567-1.177s-3.735 1.118-5.114 2.496c-1.379 1.379-2.257 3.179-2.496 5.114s0.175 3.895 1.177 5.567c-0.135 0.757-0.207 1.523-0.216 2.292 0 3.838 1.525 7.519 4.239 10.233s6.395 4.239 10.233 4.239c0.756 0.001 1.51-0.059 2.256-0.18 1.673 1.002 3.632 1.416 5.568 1.177s3.735-1.118 5.114-2.496 2.257-3.179 2.496-5.114c0.239-1.935-0.176-3.895-1.178-5.567l0.036-0.036zM22.875 22.576c-0.677 0.936-1.611 1.657-2.688 2.076-1.329 0.522-2.748 0.774-4.176 0.744-1.662 0.069-3.314-0.273-4.812-0.996-0.873-0.469-1.622-1.14-2.184-1.956-0.515-0.697-0.808-1.534-0.84-2.4-0.001-0.225 0.044-0.447 0.133-0.654s0.219-0.392 0.383-0.546c0.363-0.309 0.831-0.468 1.308-0.444 0.398-0.008 0.786 0.129 1.092 0.384 0.335 0.313 0.594 0.699 0.756 1.128 0.208 0.501 0.474 0.976 0.792 1.416 0.317 0.406 0.729 0.727 1.2 0.936 0.64 0.274 1.333 0.401 2.028 0.372 0.99 0.048 1.971-0.212 2.808-0.744 0.321-0.188 0.588-0.456 0.775-0.778s0.288-0.686 0.293-1.058c0.010-0.261-0.034-0.52-0.132-0.762s-0.244-0.461-0.432-0.642c-0.427-0.394-0.941-0.681-1.5-0.84-0.624-0.204-1.452-0.408-2.496-0.636-1.199-0.279-2.368-0.673-3.492-1.176-0.884-0.362-1.664-0.94-2.268-1.68-0.573-0.763-0.869-1.698-0.84-2.652-0.010-0.97 0.303-1.915 0.888-2.688 0.669-0.831 1.559-1.455 2.568-1.8 1.276-0.424 2.616-0.619 3.96-0.576 1.051-0.019 2.099 0.123 3.108 0.42 0.792 0.235 1.535 0.609 2.196 1.104 0.52 0.391 0.953 0.885 1.272 1.452 0.26 0.458 0.4 0.974 0.408 1.5-0.001 0.224-0.048 0.446-0.136 0.652s-0.218 0.392-0.38 0.548c-0.163 0.177-0.362 0.318-0.583 0.413s-0.46 0.143-0.701 0.139c-0.386 0.030-0.769-0.090-1.068-0.336-0.315-0.303-0.578-0.656-0.78-1.044-0.297-0.612-0.728-1.149-1.26-1.572-0.698-0.435-1.52-0.629-2.34-0.552-0.841-0.035-1.675 0.173-2.4 0.6-0.264 0.141-0.486 0.347-0.646 0.6s-0.252 0.542-0.266 0.84c-0.009 0.326 0.097 0.645 0.3 0.9 0.239 0.277 0.534 0.502 0.864 0.66 0.352 0.182 0.722 0.327 1.104 0.432 0.384 0.108 1.008 0.264 1.884 0.468 1.104 0.24 2.088 0.504 2.988 0.792 0.805 0.245 1.572 0.601 2.28 1.056 0.617 0.39 1.125 0.931 1.476 1.572 0.357 0.731 0.522 1.54 0.48 2.352 0.011 1.064-0.312 2.105-0.924 2.976z"></path>
</symbol>
<symbol id="icon-cross" viewBox="0 0 32 32">
<path fill="" style="" d="M32 2.8l-2.8-2.8-13.2 13.2-13.2-13.2-2.8 2.8 13.2 13.2-13.2 13.2 2.8 2.8 13.2-13.2 13.2 13.2 2.8-2.8-13.2-13.2 13.2-13.2z"></path>
</symbol>
<symbol id="icon-social-sixth" viewBox="0 0 32 32">
<path fill="" style="" d="M16 0.727c-3.541 0.024-6.963 1.278-9.682 3.547s-4.564 5.412-5.222 8.891c-0.657 3.479-0.085 7.079 1.619 10.183s4.433 5.52 7.721 6.834c-0.221-1.446-0.221-2.918 0-4.364l1.8-7.636c-0.285-0.692-0.426-1.434-0.415-2.182 0-2.116 1.233-3.709 2.76-3.709 0.277-0.004 0.551 0.052 0.804 0.163s0.479 0.277 0.663 0.484c0.183 0.207 0.32 0.452 0.4 0.716s0.102 0.544 0.064 0.818c0 1.309-0.829 3.273-1.265 5.084-0.094 0.338-0.105 0.693-0.033 1.036s0.227 0.663 0.449 0.934c0.223 0.271 0.507 0.484 0.83 0.621s0.673 0.195 1.023 0.168c2.705 0 4.8-2.869 4.8-6.993 0.027-0.838-0.121-1.672-0.434-2.45s-0.785-1.481-1.386-2.067-1.316-1.039-2.102-1.332c-0.786-0.293-1.624-0.419-2.46-0.37-0.894-0.038-1.786 0.105-2.622 0.421s-1.6 0.799-2.245 1.419c-0.645 0.62-1.157 1.364-1.505 2.188s-0.526 1.71-0.522 2.604c-0.012 1.246 0.37 2.464 1.091 3.48 0.052 0.058 0.090 0.129 0.109 0.205s0.019 0.156 0 0.232c-0.12 0.48-0.382 1.527-0.425 1.735s-0.229 0.338-0.513 0.207c-1.909-0.895-3.098-3.676-3.098-5.924 0-4.811 3.502-9.24 10.091-9.24 5.291 0 9.415 3.775 9.415 8.825 0 5.258-3.273 9.491-7.931 9.491-0.683 0.024-1.361-0.123-1.973-0.428s-1.137-0.758-1.529-1.317l-0.949 3.633c-0.455 1.412-1.093 2.758-1.898 4.004 1.483 0.438 3.024 0.652 4.571 0.633 4.051 0 7.935-1.609 10.799-4.473s4.473-6.749 4.473-10.799c0-4.051-1.609-7.935-4.473-10.799s-6.749-4.473-10.799-4.473z"></path>
</symbol>
<symbol id="checkmark" viewBox="0 0 40 32">
<path d="M20.6 7.9c-4.3 0-7.8 3.5-7.8 7.8s3.5 7.8 7.8 7.8 7.8-3.5 7.8-7.8-3.5-7.8-7.8-7.8zM19.6 19l-3.2-3.2 0.9-0.9 2.3 2.3 4.8-4.8 0.9 0.9-5.7 5.7z"></path>
<path d="M30.2 30.2l-2.7-2.7 0.8-0.8 1.9 1.9 4.1-4.1 0.8 0.8-4.9 4.9z"></path>
<path fill="none" stroke="#000" style="stroke: var(--color1, #000)" stroke-linejoin="miter" stroke-linecap="butt" stroke-miterlimit="10" stroke-width="0.5" d="M15.2 3.3c0 0.607-0.492 1.1-1.1 1.1s-1.1-0.493-1.1-1.1c0-0.607 0.492-1.1 1.1-1.1s1.1 0.493 1.1 1.1z"></path>
<path d="M10.5 25c0 0.387-0.313 0.7-0.7 0.7s-0.7-0.313-0.7-0.7c0-0.387 0.313-0.7 0.7-0.7s0.7 0.313 0.7 0.7z"></path>
<path d="M33.9 9v-1.3h1.2v-0.6h-1.2v-1.2h-0.6v1.2h-1.2v0.6h1.2v1.3z"></path>
<path d="M4.9 16l-1.8 0.7-0.7-1.8-0.6 0.2 0.7 1.8-1.8 0.7 0.2 0.6 1.8-0.7 0.7 1.8 0.6-0.2-0.7-1.8 1.8-0.7z"></path>
</symbol>
</defs>
</svg>
